<svg width="19" height="16" viewBox="0 0 19 16" fill="none" xmlns="http://www.w3.org/2000/svg">
  <path d="M1.76641 9.43701L8.47207 15.6017C8.75039 15.8575 9.11777 16 9.5 16C9.88223 16 10.2496 15.8575 10.5279 15.6017L17.2336 9.43701C18.3617 8.40286 19 6.95213 19 5.43563V5.22368C19 2.66938 17.126 0.491461 14.5691 0.0712247C12.877 -0.206497 11.1551 0.337983 9.94531 1.52926L9.5 1.96777L9.05469 1.52926C7.84492 0.337983 6.12305 -0.206497 4.43086 0.0712247C1.87402 0.491461 0 2.66938 0 5.22368V5.43563C0 6.95213 0.638281 8.40286 1.76641 9.43701Z" fill="#FAFAFA"/>
</svg>
