<svg width="126" height="28" viewBox="0 0 126 28" fill="none" xmlns="http://www.w3.org/2000/svg">
<mask id="mask0_3523_1406" style="mask-type:luminance" maskUnits="userSpaceOnUse" x="0" y="0" width="126" height="28">
<path d="M125.244 0H0V27.1959H125.244V0Z" fill="white"/>
</mask>
<g mask="url(#mask0_3523_1406)">
<path d="M19.7286 13.7626C19.1125 13.325 18.4565 12.9485 17.7715 12.6426C16.1058 11.8991 14.3088 11.492 12.6119 10.9179C11.8447 10.7461 11.1708 10.2731 10.7216 9.59312L10.6237 9.35782C10.3035 8.17191 11.3621 7.49425 12.2895 7.25424C14.5535 6.70599 16.9197 7.4966 18.472 9.32488C19.306 8.4778 20.1734 7.62837 20.9718 6.78129L22.7954 4.91772C21.0674 3.46592 19.0347 2.47766 16.8686 2.0353C14.7803 1.57411 12.6164 1.6447 10.5592 2.24001L10.3413 2.30589C11.4577 5.89421 9.6163 9.76253 6.22478 10.9437C5.74218 11.1132 5.2418 11.219 4.73474 11.2637C4.98827 12.1979 5.4464 13.0567 6.07355 13.7673C7.11436 14.9015 8.41759 15.7321 9.85426 16.1768C11.2642 16.6803 12.7387 16.9886 14.1465 17.4992C15.1139 17.7015 15.9479 18.3463 16.4238 19.2616C16.466 19.3604 16.4994 19.4639 16.5216 19.5698C16.744 21.1604 15.2117 21.7746 13.9241 21.8052C11.54 21.8522 9.23823 20.8734 7.54803 19.0922L3.15796 23.3934C5.5398 25.6547 8.58216 26.9818 11.778 27.1559C13.7284 27.3394 15.6921 27.0382 17.5135 26.2735C19.3394 25.4829 20.8472 24.0452 21.7768 22.2052C22.6931 20.3393 22.7176 18.1227 21.8391 16.238C21.3387 15.2427 20.6137 14.3932 19.7264 13.765" fill="white"/>
<path d="M47.4746 14.4075C47.4746 21.1112 42.3395 26.5443 36.0035 26.5443C29.6674 26.5443 24.5323 21.1112 24.5323 14.4075C24.5323 7.70383 29.6674 2.27076 36.0035 2.27076C42.3328 2.2637 47.4701 7.68736 47.4746 14.3863C47.4746 14.3934 47.4746 14.4005 47.4746 14.4099M42.0259 14.4075C42.0259 10.8874 39.3283 8.03325 36.0012 8.03325C32.6742 8.03325 29.9766 10.8874 29.9766 14.4075C29.9766 17.9276 32.672 20.7794 35.999 20.7818C39.3216 20.7865 42.0192 17.9394 42.0237 14.4216V14.4075" fill="white"/>
<path d="M54.6512 14.4402C54.6757 17.9485 57.3844 20.7721 60.7003 20.7463C62.2949 20.7345 63.8183 20.0521 64.937 18.8474L68.8467 22.8475C64.4544 27.6429 57.2199 27.7652 52.6853 23.1181C48.1529 18.4709 48.0372 10.8166 52.4295 6.01886C56.8218 1.22345 64.0563 1.1011 68.5909 5.74826C68.8467 6.0118 69.0913 6.2871 69.3226 6.57181L65.1883 10.3343C63.0533 7.66831 59.2815 7.33654 56.7595 9.59541C55.414 10.8001 54.6401 12.572 54.6445 14.4379" fill="white"/>
<path d="M78.1093 2.6095H72.6606V26.2406H78.1093V2.6095Z" fill="white"/>
<path d="M98.1672 23.3864H89.0357L87.9793 26.3018H82.0814L90.7037 2.60242H96.4726L105.124 26.3018H99.2258L98.1717 23.3864H98.1672ZM96.0834 17.6239L93.5837 10.7767L91.1151 17.6239H96.0834Z" fill="white"/>
<path d="M112.845 20.5087H125.246V26.3018H107.396V2.60474H112.845V20.511V20.5087Z" fill="white"/>
<path d="M8.40452 4.44508C8.40452 6.77925 6.69875 8.71577 4.49927 8.88283C4.40141 8.88283 4.30134 8.89224 4.20348 8.89224C1.88391 8.89224 0.004675 6.90161 0.00689894 4.44743C0.00689894 1.99326 1.88836 0.00497331 4.20793 0.00732631C6.52528 0.00732631 8.40229 1.99561 8.40452 4.44508Z" fill="white"/>
<path d="M8.40452 4.44508C8.40452 6.77925 6.69875 8.71577 4.49927 8.88283C4.40141 8.88283 4.30134 8.89224 4.20348 8.89224C1.88391 8.89224 0.004675 6.90161 0.00689894 4.44743C0.00689894 1.99326 1.88836 0.00497331 4.20793 0.00732631C6.52528 0.00732631 8.40229 1.99561 8.40452 4.44508Z" fill="#4EA947"/>
</g>
</svg>
