<svg width="41" height="41" viewBox="0 0 41 41" fill="none" xmlns="http://www.w3.org/2000/svg">
<g clip-path="url(#clip0_3538_1325)">
<path d="M20.8668 26.7643C24.5421 26.7643 27.5215 23.7848 27.5215 20.1095C27.5215 16.4343 24.5421 13.4548 20.8668 13.4548C17.1915 13.4548 14.2121 16.4343 14.2121 20.1095C14.2121 23.7848 17.1915 26.7643 20.8668 26.7643Z" fill="#FFB6B6"/>
<path d="M17.0466 27.7483L16.746 24.7093L22.7496 23.5867L26.2947 32.2182L20.1293 39.3085L15.7365 30.6769L17.0466 27.7483Z" fill="#FFB6B6"/>
<path d="M16.6495 26.2305L17.962 26.5271C17.962 26.5271 16.9302 23.2552 17.2805 22.9428C17.6307 22.6305 18.4889 23.1227 18.4889 23.1227L19.3907 24.1338L20.4893 23.0153C20.4893 23.0153 21.6819 21.5324 22.1488 21.1159C22.6158 20.6994 21.8657 19.1535 21.8657 19.1535C21.8657 19.1535 28.7935 17.2854 26.2157 13.9252C26.2157 13.9252 24.7043 11.2907 24.2121 12.1489C23.7199 13.0071 23.133 11.6441 23.133 11.6441L21.3409 11.9849C21.3409 11.9849 17.804 9.89944 14.447 14.3609C11.09 18.8223 16.6495 26.2305 16.6495 26.2305Z" fill="#2F2E41"/>
<path d="M33.3826 36.4491C29.7458 39.3978 25.2466 41 20.5 41C16.1657 41 12.0372 39.6636 8.5838 37.1867C8.58997 37.1219 8.59613 37.058 8.60153 36.994C8.69324 35.9921 8.77493 35.018 8.82888 34.2103C9.03773 31.0744 16.3538 28.9844 16.3538 28.9844C16.3538 28.9844 16.3869 29.0175 16.4532 29.0753C16.857 29.4298 18.4962 30.7153 21.3709 31.0744C23.9341 31.395 24.778 29.8745 25.0331 29.1462C25.1102 28.9243 25.1333 28.7755 25.1333 28.7755L32.6582 32.3291C33.1491 33.0304 33.341 34.5409 33.3788 36.2387C33.3803 36.3089 33.3819 36.3782 33.3826 36.4491Z" fill="#6C63FF"/>
<path d="M34.9957 6.00434C31.1238 2.13246 25.9757 0 20.5 0C15.0243 0 9.87622 2.13246 6.00434 6.00434C2.13247 9.87622 0 15.0243 0 20.5C0 25.4978 1.77641 30.2229 5.03175 33.9537C5.34233 34.3105 5.66679 34.6581 6.00434 34.9957C6.08372 35.075 6.16388 35.1544 6.2448 35.2315C6.46058 35.4403 6.68023 35.6446 6.90372 35.8426C7.03936 35.9636 7.17655 36.0823 7.31527 36.1987C7.42393 36.2904 7.5326 36.3806 7.64281 36.4692C7.64511 36.4715 7.64666 36.473 7.64897 36.4746C7.95493 36.7212 8.26628 36.9586 8.5838 37.1867C12.0372 39.6636 16.1657 41 20.5 41C25.2466 41 29.7458 39.3978 33.3826 36.4492C33.6793 36.2087 33.9699 35.959 34.255 35.7008C34.507 35.4727 34.7537 35.2376 34.9957 34.9957C35.072 34.9194 35.1483 34.8423 35.223 34.7645C35.4311 34.5502 35.633 34.3321 35.8303 34.1109C39.1727 30.3562 41 25.5687 41 20.5C41 15.0243 38.8675 9.87622 34.9957 6.00434ZM35.7802 33.919C35.5875 34.1379 35.3902 34.3537 35.1883 34.5641C34.8739 34.8916 34.5494 35.2091 34.2142 35.5151C34.087 35.6322 33.9583 35.7463 33.8281 35.8596C33.6801 35.9883 33.5306 36.1147 33.3788 36.2388C32.1819 37.2214 30.871 38.0691 29.4691 38.7596C28.915 39.0332 28.347 39.2822 27.7659 39.5049C25.5086 40.3711 23.0586 40.8459 20.5 40.8459C18.0308 40.8459 15.6632 40.4035 13.4722 39.5943C12.5728 39.2629 11.7035 38.8691 10.8689 38.4182C10.7463 38.352 10.6246 38.2849 10.5036 38.2163C9.86698 37.8556 9.25121 37.4618 8.6601 37.0364C8.64083 37.0225 8.62079 37.0079 8.60153 36.994C8.18073 36.6904 7.77151 36.3705 7.37615 36.0345C7.23126 35.912 7.08792 35.7879 6.94688 35.6608C6.71722 35.4565 6.49219 35.2461 6.27254 35.0303C5.85638 34.6227 5.4587 34.198 5.07876 33.7564C2.0107 30.1928 0.154135 25.5595 0.154135 20.5C0.154135 9.28126 9.28126 0.154135 20.5 0.154135C31.7187 0.154135 40.8459 9.28126 40.8459 20.5C40.8459 25.6373 38.9323 30.3354 35.7802 33.919Z" fill="#27272A"/>
</g>
<defs>
<clipPath id="clip0_3538_1325">
<rect width="41" height="41" fill="white"/>
</clipPath>
</defs>
</svg>
