<svg width="30" height="29" viewBox="0 0 30 29" fill="none" xmlns="http://www.w3.org/2000/svg">
<g clip-path="url(#clip0_3631_285)">
<path d="M15.2684 18.9308C17.9577 18.9308 20.1377 16.8234 20.1377 14.2238C20.1377 11.6242 17.9577 9.51685 15.2684 9.51685C12.5792 9.51685 10.3991 11.6242 10.3991 14.2238C10.3991 16.8234 12.5792 18.9308 15.2684 18.9308Z" fill="#FFB6B6"/>
<path d="M12.4731 19.627L12.2531 17.4774L16.646 16.6833L19.24 22.7886L14.7288 27.8037L11.5145 21.6984L12.4731 19.627Z" fill="#FFB6B6"/>
<path d="M12.1826 18.5533L13.143 18.7631C13.143 18.7631 12.388 16.4489 12.6442 16.2279C12.9005 16.007 13.5285 16.3551 13.5285 16.3551L14.1883 17.0703L14.9921 16.2792C14.9921 16.2792 15.8648 15.2303 16.2065 14.9357C16.5481 14.6411 15.9993 13.5476 15.9993 13.5476C15.9993 13.5476 21.0684 12.2263 19.1822 9.84961C19.1822 9.84961 18.0763 7.98617 17.7162 8.59319C17.356 9.20022 16.9266 8.23614 16.9266 8.23614L15.6153 8.47719C15.6153 8.47719 13.0273 7.00209 10.571 10.1577C8.11462 13.3134 12.1826 18.5533 12.1826 18.5533Z" fill="#2F2E41"/>
<path d="M24.4263 25.7812C21.7652 27.8668 18.4731 29.0001 15 29.0001C11.8286 29.0001 8.8077 28.0549 6.28082 26.3029C6.28534 26.2571 6.28985 26.2118 6.2938 26.1666C6.3609 25.458 6.42067 24.7689 6.46015 24.1977C6.61297 21.9796 11.9662 20.5012 11.9662 20.5012C11.9662 20.5012 11.9904 20.5247 12.0389 20.5656C12.3344 20.8163 13.5338 21.7256 15.6372 21.9796C17.5128 22.2064 18.1303 21.1308 18.3169 20.6157C18.3733 20.4587 18.3902 20.3535 18.3902 20.3535L23.8962 22.867C24.2554 23.3631 24.3959 24.4315 24.4235 25.6324C24.4246 25.682 24.4257 25.7311 24.4263 25.7812Z" fill="#6C63FF"/>
<path d="M25.6066 4.24698C22.7735 1.50833 19.0066 0 15 0C10.9934 0 7.2265 1.50833 4.39342 4.24698C1.56034 6.98562 0 10.627 0 14.5C0 18.0351 1.29981 21.3771 3.68177 24.016C3.90902 24.2684 4.14643 24.5143 4.39342 24.753C4.4515 24.8092 4.51015 24.8653 4.56936 24.9198C4.72726 25.0676 4.88797 25.212 5.05151 25.3521C5.15075 25.4377 5.25113 25.5216 5.35263 25.6039C5.43214 25.6688 5.51166 25.7326 5.5923 25.7953C5.59399 25.7969 5.59512 25.798 5.59681 25.7991C5.82068 25.9735 6.0485 26.1414 6.28083 26.3028C8.80771 28.0548 11.8286 29 15 29C18.4731 29 21.7652 27.8667 24.4263 25.7811C24.6434 25.611 24.856 25.4344 25.0647 25.2518C25.2491 25.0905 25.4295 24.9242 25.6066 24.753C25.6624 24.6991 25.7182 24.6446 25.7729 24.5895C25.9252 24.438 26.0729 24.2837 26.2173 24.1272C28.663 21.4714 30 18.0852 30 14.5C30 10.627 28.4397 6.98562 25.6066 4.24698ZM26.1806 23.9915C26.0397 24.1463 25.8953 24.2989 25.7476 24.4478C25.5175 24.6794 25.2801 24.904 25.0348 25.1204C24.9417 25.2033 24.8476 25.284 24.7523 25.3641C24.644 25.4551 24.5346 25.5445 24.4235 25.6323C23.5477 26.3273 22.5885 26.9269 21.5628 27.4154C21.1573 27.6089 20.7417 27.7849 20.3165 27.9425C18.6649 28.5552 16.8722 28.891 15 28.891C13.1932 28.891 11.4609 28.5781 9.85771 28.0057C9.19963 27.7713 8.56354 27.4928 7.95282 27.1739C7.86316 27.127 7.77406 27.0796 7.68553 27.0311C7.21974 26.7759 6.76918 26.4974 6.33666 26.1965C6.32256 26.1867 6.3079 26.1763 6.2938 26.1665C5.9859 25.9517 5.68647 25.7255 5.39718 25.4878C5.29117 25.4012 5.18628 25.3134 5.08308 25.2235C4.91504 25.079 4.75038 24.9302 4.58966 24.7776C4.28515 24.4892 3.99417 24.1888 3.71617 23.8765C1.47124 21.3559 0.112782 18.0787 0.112782 14.5C0.112782 6.56479 6.79117 0.109023 15 0.109023C23.2088 0.109023 29.8872 6.56479 29.8872 14.5C29.8872 18.1337 28.487 21.4567 26.1806 23.9915Z" fill="#3F3D56"/>
</g>
<defs>
<clipPath id="clip0_3631_285">
<rect width="30" height="29" fill="white"/>
</clipPath>
</defs>
</svg>
